<svg id="svg" xmlns="http://www.w3.org/2000/svg" viewbox="7.229999542236328,66,462.654296875,294" style="height:294"><rect x="118.23" y="100" fill="none" stroke="#6190e8" stroke-width="2" width="246" height="217" d="M 118.23 100 h 246 v 217 h -246 Z"></rect><circle cx="361.23" cy="103" fill="none" stroke="#6190e8" stroke-width="2" r="12.727922061357855" d="M 348.5020779386422 103 a 12.727922061357855 12.727922061357855 0 1 0 25.45584412271571 0a 12.727922061357855 12.727922061357855 0 1 0 -25.45584412271571 0 Z"></circle><circle cx="365.23" cy="318" fill="none" stroke="#6190e8" stroke-width="2" r="10.63014581273465" d="M 354.59985418726535 318 a 10.63014581273465 10.63014581273465 0 1 0 21.2602916254693 0a 10.63014581273465 10.63014581273465 0 1 0 -21.2602916254693 0 Z"></circle><circle cx="123.23" cy="316" fill="none" stroke="#6190e8" stroke-width="2" r="12.041594578792296" d="M 111.1884054212077 316 a 12.041594578792296 12.041594578792296 0 1 0 24.08318915758459 0a 12.041594578792296 12.041594578792296 0 1 0 -24.08318915758459 0 Z"></circle><circle cx="119.23" cy="103" fill="none" stroke="#6190e8" stroke-width="2" r="13.038404810405286" d="M 106.19159518959472 103 a 13.038404810405286 13.038404810405286 0 1 0 26.07680962081057 0a 13.038404810405286 13.038404810405286 0 1 0 -26.07680962081057 0 Z"></circle><text font-family="inherit" font-size="14" fill="#6190e8" x="49.23" y="91">X=0  ,  Y=0</text><text font-family="inherit" font-size="14" fill="#6190e8" x="352.23" y="346">X=FULL, Y=FULL</text><text font-family="inherit" font-size="14" fill="#6190e8" x="380.23" y="93">X=FULL, Y=0</text><text font-family="inherit" font-size="14" fill="#6190e8" x="18.23" y="331">X=0 , Y=FULL</text></svg>  