<svg id="svg" xmlns="http://www.w3.org/2000/svg" viewbox="80.2300033569336,46,297.59375,233" style="height:233"><rect x="122.23" y="82" fill="none" stroke="#6190e8" stroke-width="2" width="211" height="167" d="M 122.23 82 h 211 v 167 h -211 Z"></rect><line x1="124.23" y1="84" x2="333.23" y2="247" fill="none" stroke="#6190e8" stroke-width="2" d="M 124.23 84 L 333.23 247"></line><circle cx="332.23" cy="83" fill="none" stroke="#6190e8" stroke-width="2" r="9.848857801796104" d="M 322.3811421982039 83 a 9.848857801796104 9.848857801796104 0 1 0 19.697715603592208 0a 9.848857801796104 9.848857801796104 0 1 0 -19.697715603592208 0 Z"></circle><circle cx="335.23" cy="248" fill="none" stroke="#6190e8" stroke-width="2" r="10.295630140987" d="M 324.93436985901303 248 a 10.295630140987 10.295630140987 0 1 0 20.591260281974 0a 10.295630140987 10.295630140987 0 1 0 -20.591260281974 0 Z"></circle><circle cx="124.23" cy="249" fill="none" stroke="#6190e8" stroke-width="2" r="9.848857801796099" d="M 114.3811421982039 249 a 9.848857801796099 9.848857801796099 0 1 0 19.697715603592197 0a 9.848857801796099 9.848857801796099 0 1 0 -19.697715603592197 0 Z"></circle><circle cx="123.23" cy="84" fill="none" stroke="#6190e8" stroke-width="2" r="11.401754250991369" d="M 111.82824574900863 84 a 11.401754250991369 11.401754250991369 0 1 0 22.803508501982737 0a 11.401754250991369 11.401754250991369 0 1 0 -22.803508501982737 0 Z"></circle><text font-family="inherit" font-size="14" fill="#6190e8" x="93.23" y="102">1.</text><text font-family="inherit" font-size="14" fill="#6190e8" x="90.23" y="261">2.</text><text font-family="inherit" font-size="14" fill="#6190e8" x="312.23" y="265">3.</text><text font-family="inherit" font-size="14" fill="#6190e8" x="348.23" y="79">4.</text><text font-family="inherit" font-size="14" fill="#6190e8" x="143.23" y="71">5.</text><text font-family="inherit" font-size="14" fill="#6190e8" x="357.23" y="239">6.</text></svg>  